<?xml version="1.0" encoding="utf-8"?>
<!-- Generator: Adobe Illustrator 17.0.0, SVG Export Plug-In . SVG Version: 6.00 Build 0)  -->
<!DOCTYPE svg PUBLIC "-//W3C//DTD SVG 1.1//EN" "http://www.w3.org/Graphics/SVG/1.1/DTD/svg11.dtd">
<svg version="1.1" xmlns="http://www.w3.org/2000/svg" xmlns:xlink="http://www.w3.org/1999/xlink" x="0px" y="0px" width="450px"
	 height="352px" viewBox="0 0 450 352" enable-background="new 0 0 450 352" xml:space="preserve">
<g id="Layer_2" opacity="0.4">
</g>
<g id="Layer_1">
	<g>
		<path fill="none" stroke="#000000" stroke-width="2" stroke-linecap="round" stroke-linejoin="round" stroke-miterlimit="10" d="
			M183.883,138.74h-5.043c0,0-15.548,4.203-20.591,7.145c0,0-3.527,1.321-2.941,7.354c0.634,6.537,1.681,30.677,6.934,34.669
			c5.253,3.991,56.521,4.412,71.859,2.73c15.339-1.681,21.851-5.252,23.742-10.715c1.892-5.463,2.311-8.615,2.311-8.615l17.23-0.21
			c0,0,3.991-15.758,4.202-18.909c0,0-12.607-2.103-20.381-1.262c0,0,0-4.202-1.471-7.564c-1.471-3.362-4.413-7.143-11.977-8.194
			c-7.563-1.051-45.174-1.261-50.427-1.051c-5.253,0.21-7.774,0.841-8.825,1.051C187.455,135.379,184.093,136.428,183.883,138.74z"
			/>
		<path fill="none" stroke="#000000" stroke-width="2" stroke-linecap="round" stroke-linejoin="round" stroke-miterlimit="10" d="
			M183.883,138.74c0,0,51.269-0.841,56.521,0c5.252,0.841,9.454,3.362,10.505,11.347c1.051,7.984,5.155,33.404-4.986,38.448"/>
		<path fill="none" stroke="#000000" stroke-width="2" stroke-linecap="round" stroke-linejoin="round" stroke-miterlimit="10" d="
			M155.307,153.238c0,0,0.63-6.724,7.354-6.724c6.724,0,57.361-2.941,63.034,1.261c5.674,4.202,6.303,12.396,6.093,20.381
			c-0.21,7.984,2.4,21.808-13.403,23.3"/>
		<path fill="none" stroke="#000000" stroke-width="2" stroke-linecap="round" stroke-linejoin="round" stroke-miterlimit="10" d="
			M226.829,188.535c0,0-1.345-9.636-1.554-20.05c-0.21-10.414,0.42-20.71,0.42-20.71"/>
		<path fill="none" stroke="#000000" stroke-width="2" stroke-linecap="round" stroke-linejoin="round" stroke-miterlimit="10" d="
			M261.204,150.926c0,0-3.571,1.051-5.883,1.681c0,0-0.63,15.968,0,19.96c0,0,2.731-1.234,4.832-1.26"/>
		<path fill="none" stroke="#000000" stroke-width="2" stroke-linecap="round" stroke-linejoin="round" stroke-miterlimit="10" d="
			M193.57,191.567c0,0,3.983,13.178,6.303,17.817c2.32,4.64,3.479,9.744,11.831,9.744c8.352,0,23.432-2.553,30.854-6.728"/>
		<path fill="none" stroke="#000000" stroke-width="2" stroke-linecap="round" stroke-linejoin="round" stroke-miterlimit="10" d="
			M252.62,203.586c0,0,7.743-9.976,8.585-13.688c0,0,2.234,2.319,6.874-2.553c4.64-4.872,7.878-11.565,7.187-16.222"/>
		<path fill="none" stroke="#000000" stroke-width="2" stroke-linecap="round" stroke-linejoin="round" stroke-miterlimit="10" d="
			M263.989,181.778c0,0,2.93-0.696,3.162-2.784c0.232-2.087-2.088-2.319,0-7.771"/>
		<path fill="none" stroke="#000000" stroke-width="2" stroke-linecap="round" stroke-linejoin="round" stroke-miterlimit="10" d="
			M194.769,134.045c0,0,1.16-5.161,3.712-8.177"/>
		<path fill="none" stroke="#000000" stroke-width="2" stroke-linecap="round" stroke-linejoin="round" stroke-miterlimit="10" d="
			M196.625,128.818c0,0-0.464-3.878,5.336-9.678c5.8-5.8,10.672-7.888,12.76-8.816c0,0,2.929-3.248,10.512-4.64
			c7.583-1.392,24.458-3.711,35.972,3.48c11.514,7.191,18.576,14.266,20.381,24.88c1.805,10.614,1.443,16.16,0,18.144"/>
		<path fill="none" stroke="#000000" stroke-width="2" stroke-linecap="round" stroke-linejoin="round" stroke-miterlimit="10" d="
			M201.728,125.868c0,0,4.64,0.928,14.616,0c9.976-0.928,31.284-1.318,38.697,11.817"/>
		<path fill="none" stroke="#000000" stroke-width="2" stroke-linecap="round" stroke-linejoin="round" stroke-miterlimit="10" d="
			M265.578,189.482c0,0-2.199,36.836-4.373,45.42"/>
		<path fill="none" stroke="#000000" stroke-width="2" stroke-linecap="round" stroke-linejoin="round" stroke-miterlimit="10" d="
			M272.289,181.778c0,0-0.499,3.342,2.053,9.789c2.553,6.448,3.248,7.609,2.553,18.512c-0.696,10.903-14.619,18.528-14.619,18.528"
			/>
		<path fill="none" stroke="#000000" stroke-width="2" stroke-linecap="round" stroke-linejoin="round" stroke-miterlimit="10" d="
			M214.025,219.129c0,0-1.16,8.118-5.8,12.526c-4.64,4.407-28.535,16.154-28.535,16.154"/>
		<path fill="none" stroke="#000000" stroke-width="2" stroke-linecap="round" stroke-linejoin="round" stroke-miterlimit="10" d="
			M261.903,231.241c0,0,6.583,4.358,13.455,5.749c6.873,1.393,19.4,9.28,19.4,9.28"/>
		<path fill="none" stroke="#000000" stroke-width="2" stroke-linecap="round" stroke-linejoin="round" stroke-miterlimit="10" d="
			M201.728,197.551c0,0,0.928-2.784,3.248-2.784c2.32,0,2.552,0.928,6.728,0c0,0,2.921,1.16,7.492,2.784
			c4.572,1.624,6.036,1.624,6.036,1.624s-9.584,2.783-13.296,3.48c-3.712,0.696-6.728,1.392-8.12,0
			c-1.392-1.392-0.232-3.542-0.232-3.542L201.728,197.551z"/>
		<path fill="none" stroke="#000000" stroke-width="2" stroke-linecap="round" stroke-linejoin="round" stroke-miterlimit="10" d="
			M203.585,199.113c0,0,1.16,0.634,6.032,0c4.872-0.634,15.616,0.062,15.616,0.062"/>
		<path fill="none" stroke="#000000" stroke-width="2" stroke-linecap="round" stroke-linejoin="round" stroke-miterlimit="10" d="
			M202.93,126.102c1.369-0.3,3.979-2.319,5.224-2.971c2.962-1.552,6.021-3.16,9.203-4.225"/>
		<path fill="none" stroke="#000000" stroke-width="2" stroke-linecap="round" stroke-linejoin="round" stroke-miterlimit="10" d="
			M221.562,117.377c0.51,0,1.019,0,1.529,0"/>
		<path fill="none" stroke="#000000" stroke-width="2" stroke-linecap="round" stroke-linejoin="round" stroke-miterlimit="10" d="
			M268.584,186.8c0.624,0.454,0.773,2.733,1.032,3.673c0.614,2.23,2.366,4.908,2.409,7.186"/>
		<path fill="none" stroke="#000000" stroke-width="2" stroke-linecap="round" stroke-linejoin="round" stroke-miterlimit="10" d="
			M273.172,203.394c0-0.255,0-0.51,0-0.765"/>
		<path fill="none" stroke="#000000" stroke-width="2" stroke-linecap="round" stroke-linejoin="round" stroke-miterlimit="10" d="
			M263.615,220.597c1.045-0.489,1.954-1.462,2.677-2.37c0.969-1.218,3.351-3.793,3.441-5.275"/>
		
			<polyline fill="none" stroke="#000000" stroke-width="2" stroke-linecap="round" stroke-linejoin="round" stroke-miterlimit="10" points="
			258.123,151.433 258.123,148.815 255.402,149.111 255.322,152.607 		"/>
		<path fill="none" stroke="#000000" stroke-width="2" stroke-linecap="round" stroke-linejoin="round" stroke-miterlimit="10" d="
			M250.48,147.775c0,0-9.733,2.156-10.768,4.832c-1.034,2.677-1.712,24.956,0,27.092c1.712,2.137,11.908,0,11.908,0"/>
	</g>
</g>
</svg>
