<?xml version="1.0" encoding="utf-8"?>
<!-- Generator: Adobe Illustrator 17.0.0, SVG Export Plug-In . SVG Version: 6.00 Build 0)  -->
<!DOCTYPE svg PUBLIC "-//W3C//DTD SVG 1.1//EN" "http://www.w3.org/Graphics/SVG/1.1/DTD/svg11.dtd">
<svg version="1.1" xmlns="http://www.w3.org/2000/svg" xmlns:xlink="http://www.w3.org/1999/xlink" x="0px" y="0px" width="450px"
	 height="352px" viewBox="0 0 450 352" enable-background="new 0 0 450 352" xml:space="preserve">
<g id="Layer_2" opacity="0.4">
</g>
<g id="Layer_1">
	<g>
		<g>
			<path fill="none" stroke="#000000" stroke-width="2" stroke-linecap="round" stroke-linejoin="round" stroke-miterlimit="10" d="
				M201.093,164.529c0,0,2.749-2.748,6.307-7.438c3.558-4.69,7.762-17.466,7.762-17.466s4.135,6.468,10.719,10.835
				c6.585,4.365,19.845,10.551,22.109,12.31"/>
			<path fill="none" stroke="#000000" stroke-width="2" stroke-linecap="round" stroke-linejoin="round" stroke-miterlimit="10" d="
				M202.732,162.77c0,0,0.786,10.814,1.433,15.182c0.647,4.365,5.175,10.186,6.792,11.804c0,0,0.324,9.218-1.616,12.29
				c-1.941,3.073-12.29,6.468-18.112,8.731c-5.821,2.264-15.201,4.528-19.081,10.512c-3.881,5.983-4.043,12.775-4.689,19.243v5.337
				H283.08c0,0-1.293-15.362-2.91-19.891c-1.618-4.527-8.085-9.865-11.805-11.158c-3.721-1.294-8.895-4.041-12.614-5.012
				c-3.719-0.971-12.613-3.377-14.553-5.488c-1.941-2.113-3.559-6.803-3.234-13.594"/>
			<path fill="none" stroke="#000000" stroke-width="2" stroke-linecap="round" stroke-linejoin="round" stroke-miterlimit="10" d="
				M257.415,210.322c0,0,5.127-9.246,3.834-16.686c-1.294-7.439-4.204-14.392-5.175-19.567c-0.97-5.175-1.941-11.481-1.779-17.303
				c0.163-5.82-3.072-15.2-7.6-21.021c-4.528-5.822-10.189-11.481-16.656-11.805c-6.469-0.325-9.466,2.231-9.466,2.231
				s-7.51-2.613-13.061,6.855c-5.552,9.471-8.49,13.062-9.143,20.572c-0.652,7.51,0.001,17.632-2.285,24.488
				c-2.287,6.857-6.857,14.369-5.551,22.857c1.306,8.49,3.121,8.863,3.121,8.863"/>
			<path fill="none" stroke="#000000" stroke-width="2" stroke-linecap="round" stroke-linejoin="round" stroke-miterlimit="10" d="
				M246.524,161.838c0,0-0.475,11.1-1.446,15.951c-0.97,4.852-5.336,10.997-9.379,14.715c-4.042,3.72-7.762,5.5-11.158,5.5
				c-3.395,0-11.659-5.985-13.583-8.248"/>
			<path fill="none" stroke="#000000" stroke-width="2" stroke-linecap="round" stroke-linejoin="round" stroke-miterlimit="10" d="
				M215.162,139.626c0,0-1.456-2.266,0-6.146"/>
			<path fill="none" stroke="#000000" stroke-width="2" stroke-linecap="round" stroke-linejoin="round" stroke-miterlimit="10" d="
				M184.871,213.064c0,0,10.239,13.56,42.744,13.56c28.137,0,36.43-13.56,36.43-13.56"/>
		</g>
		
			<line fill="none" stroke="#000000" stroke-width="2" stroke-linecap="round" stroke-linejoin="round" stroke-miterlimit="10" x1="167.458" y1="245.869" x2="154.006" y2="245.869"/>
		
			<circle fill="none" stroke="#000000" stroke-width="2" stroke-linecap="round" stroke-linejoin="round" stroke-miterlimit="10" cx="151.308" cy="245.631" r="2.698"/>
		
			<circle fill="none" stroke="#000000" stroke-width="2" stroke-linecap="round" stroke-linejoin="round" stroke-miterlimit="10" cx="151.308" cy="229.679" r="2.698"/>
		
			<circle fill="none" stroke="#000000" stroke-width="2" stroke-linecap="round" stroke-linejoin="round" stroke-miterlimit="10" cx="152.579" cy="201.859" r="2.698"/>
		
			<circle fill="none" stroke="#000000" stroke-width="2" stroke-linecap="round" stroke-linejoin="round" stroke-miterlimit="10" cx="163.43" cy="154.775" r="2.698"/>
		
			<circle fill="none" stroke="#000000" stroke-width="2" stroke-linecap="round" stroke-linejoin="round" stroke-miterlimit="10" cx="184.407" cy="154.775" r="2.698"/>
		
			<circle fill="none" stroke="#000000" stroke-width="2" stroke-linecap="round" stroke-linejoin="round" stroke-miterlimit="10" cx="204.497" cy="106.714" r="2.698"/>
		
			<circle fill="none" stroke="#000000" stroke-width="2" stroke-linecap="round" stroke-linejoin="round" stroke-miterlimit="10" cx="218.88" cy="106.368" r="2.698"/>
		
			<circle fill="none" stroke="#000000" stroke-width="2" stroke-linecap="round" stroke-linejoin="round" stroke-miterlimit="10" cx="171.279" cy="142.43" r="2.698"/>
		
			<circle fill="none" stroke="#000000" stroke-width="2" stroke-linecap="round" stroke-linejoin="round" stroke-miterlimit="10" cx="173.977" cy="129.582" r="2.698"/>
		
			<circle fill="none" stroke="#000000" stroke-width="2" stroke-linecap="round" stroke-linejoin="round" stroke-miterlimit="10" cx="192.226" cy="114.83" r="2.698"/>
		
			<circle fill="none" stroke="#000000" stroke-width="2" stroke-linecap="round" stroke-linejoin="round" stroke-miterlimit="10" cx="164.349" cy="167.116" r="2.698"/>
		
			<circle fill="none" stroke="#000000" stroke-width="2" stroke-linecap="round" stroke-linejoin="round" stroke-miterlimit="10" cx="152.579" cy="182.618" r="2.698"/>
		
			<polyline fill="none" stroke="#000000" stroke-width="2" stroke-linecap="round" stroke-linejoin="round" stroke-miterlimit="10" points="
			167.458,236.189 160.948,229.679 154.006,229.679 		"/>
		
			<polyline fill="none" stroke="#000000" stroke-width="2" stroke-linecap="round" stroke-linejoin="round" stroke-miterlimit="10" points="
			169.63,226.624 161.042,218.037 161.042,210.322 154.487,203.768 		"/>
		
			<polyline fill="none" stroke="#000000" stroke-width="2" stroke-linecap="round" stroke-linejoin="round" stroke-miterlimit="10" points="
			191.229,210.777 175.586,195.135 175.586,165.736 165.935,156.086 		"/>
		
			<line fill="none" stroke="#000000" stroke-width="2" stroke-linecap="round" stroke-linejoin="round" stroke-miterlimit="10" x1="175.586" y1="177.789" x2="166.972" y2="169.175"/>
		
			<polyline fill="none" stroke="#000000" stroke-width="2" stroke-linecap="round" stroke-linejoin="round" stroke-miterlimit="10" points="
			185.01,204.559 175.586,204.559 155.371,184.344 		"/>
		
			<polyline fill="none" stroke="#000000" stroke-width="2" stroke-linecap="round" stroke-linejoin="round" stroke-miterlimit="10" points="
			190.575,194.451 184.406,188.281 184.406,157.474 		"/>
		
			<polyline fill="none" stroke="#000000" stroke-width="2" stroke-linecap="round" stroke-linejoin="round" stroke-miterlimit="10" points="
			196.403,177.029 191.368,171.994 191.368,146.307 176.144,131.083 		"/>
		
			<line fill="none" stroke="#000000" stroke-width="2" stroke-linecap="round" stroke-linejoin="round" stroke-miterlimit="10" x1="187.491" y1="142.43" x2="173.977" y2="142.43"/>
		
			<polyline fill="none" stroke="#000000" stroke-width="2" stroke-linecap="round" stroke-linejoin="round" stroke-miterlimit="10" points="
			202.918,140.734 192.226,130.043 192.226,117.529 		"/>
		
			<polyline fill="none" stroke="#000000" stroke-width="2" stroke-linecap="round" stroke-linejoin="round" stroke-miterlimit="10" points="
			197.572,135.389 204.497,128.463 204.497,109.412 		"/>
		
			<polyline fill="none" stroke="#000000" stroke-width="2" stroke-linecap="round" stroke-linejoin="round" stroke-miterlimit="10" points="
			176.144,217.305 164.666,205.827 164.666,193.639 		"/>
		
			<line fill="none" stroke="#000000" stroke-width="2" stroke-linecap="round" stroke-linejoin="round" stroke-miterlimit="10" x1="283.08" y1="245.869" x2="295.995" y2="245.869"/>
		
			<circle fill="none" stroke="#000000" stroke-width="2" stroke-linecap="round" stroke-linejoin="round" stroke-miterlimit="10" cx="298.693" cy="245.631" r="2.697"/>
		
			<circle fill="none" stroke="#000000" stroke-width="2" stroke-linecap="round" stroke-linejoin="round" stroke-miterlimit="10" cx="298.693" cy="229.679" r="2.697"/>
		
			<circle fill="none" stroke="#000000" stroke-width="2" stroke-linecap="round" stroke-linejoin="round" stroke-miterlimit="10" cx="297.421" cy="201.859" r="2.698"/>
		
			<circle fill="none" stroke="#000000" stroke-width="2" stroke-linecap="round" stroke-linejoin="round" stroke-miterlimit="10" cx="286.571" cy="154.775" r="2.697"/>
		
			<circle fill="none" stroke="#000000" stroke-width="2" stroke-linecap="round" stroke-linejoin="round" stroke-miterlimit="10" cx="265.594" cy="169.174" r="2.698"/>
		
			<circle fill="none" stroke="#000000" stroke-width="2" stroke-linecap="round" stroke-linejoin="round" stroke-miterlimit="10" cx="245.503" cy="106.714" r="2.697"/>
		
			<circle fill="none" stroke="#000000" stroke-width="2" stroke-linecap="round" stroke-linejoin="round" stroke-miterlimit="10" cx="278.721" cy="142.43" r="2.698"/>
		
			<circle fill="none" stroke="#000000" stroke-width="2" stroke-linecap="round" stroke-linejoin="round" stroke-miterlimit="10" cx="276.024" cy="129.582" r="2.698"/>
		
			<circle fill="none" stroke="#000000" stroke-width="2" stroke-linecap="round" stroke-linejoin="round" stroke-miterlimit="10" cx="257.775" cy="114.83" r="2.698"/>
		
			<circle fill="none" stroke="#000000" stroke-width="2" stroke-linecap="round" stroke-linejoin="round" stroke-miterlimit="10" cx="285.652" cy="167.116" r="2.699"/>
		
			<circle fill="none" stroke="#000000" stroke-width="2" stroke-linecap="round" stroke-linejoin="round" stroke-miterlimit="10" cx="297.421" cy="182.618" r="2.698"/>
		
			<polyline fill="none" stroke="#000000" stroke-width="2" stroke-linecap="round" stroke-linejoin="round" stroke-miterlimit="10" points="
			282.542,236.189 289.053,229.679 295.995,229.679 		"/>
		
			<polyline fill="none" stroke="#000000" stroke-width="2" stroke-linecap="round" stroke-linejoin="round" stroke-miterlimit="10" points="
			280.37,226.624 288.958,218.037 288.958,210.322 295.502,203.756 		"/>
		
			<polyline fill="none" stroke="#000000" stroke-width="2" stroke-linecap="round" stroke-linejoin="round" stroke-miterlimit="10" points="
			258.771,210.777 274.414,195.135 274.414,165.736 284.398,156.364 		"/>
		
			<line fill="none" stroke="#000000" stroke-width="2" stroke-linecap="round" stroke-linejoin="round" stroke-miterlimit="10" x1="274.414" y1="177.789" x2="283.029" y2="169.175"/>
		
			<polyline fill="none" stroke="#000000" stroke-width="2" stroke-linecap="round" stroke-linejoin="round" stroke-miterlimit="10" points="
			264.991,204.559 274.414,204.559 295.065,183.912 		"/>
		
			<polyline fill="none" stroke="#000000" stroke-width="2" stroke-linecap="round" stroke-linejoin="round" stroke-miterlimit="10" points="
			261.458,192.416 265.594,188.281 265.594,171.872 		"/>
		
			<polyline fill="none" stroke="#000000" stroke-width="2" stroke-linecap="round" stroke-linejoin="round" stroke-miterlimit="10" points="
			256.316,174.311 258.632,171.994 258.632,146.307 274.004,131.358 		"/>
		
			<line fill="none" stroke="#000000" stroke-width="2" stroke-linecap="round" stroke-linejoin="round" stroke-miterlimit="10" x1="262.896" y1="142.43" x2="276.024" y2="142.43"/>
		
			<polyline fill="none" stroke="#000000" stroke-width="2" stroke-linecap="round" stroke-linejoin="round" stroke-miterlimit="10" points="
			249.207,138.608 257.774,130.043 257.774,117.529 		"/>
		
			<polyline fill="none" stroke="#000000" stroke-width="2" stroke-linecap="round" stroke-linejoin="round" stroke-miterlimit="10" points="
			252.428,135.389 245.503,128.463 245.503,109.412 		"/>
		
			<polyline fill="none" stroke="#000000" stroke-width="2" stroke-linecap="round" stroke-linejoin="round" stroke-miterlimit="10" points="
			273.857,217.305 285.333,205.827 285.333,193.641 		"/>
		
			<polyline fill="none" stroke="#000000" stroke-width="2" stroke-linecap="round" stroke-linejoin="round" stroke-miterlimit="10" points="
			230.039,123.94 230.039,117.529 220.704,108.349 		"/>
	</g>
</g>
</svg>
