<svg id="Layer_1" enable-background="new 0 0 510.49 510.49" height="512" viewBox="0 0 510.49 510.49" width="512" xmlns="http://www.w3.org/2000/svg"><path d="m449.437 203.196c60.637-57.474 28.313-114.011-52.032-90.125 23.822-80.248-32.578-112.798-90.125-52.034-19.448-81.221-84.581-81.502-104.056.01-57.586-60.77-113.987-28.207-90.136 52.021-80.257-23.827-112.795 32.58-52.034 90.124-81.412 19.495-81.398 84.611-.001 104.068-60.856 57.68-27.861 113.876 52.032 90.125-23.673 79.742 32.468 112.914 90.125 52.034 19.495 81.42 84.612 81.39 104.067.001 57.798 60.977 113.779 27.53 90.126-52.033 80.043 23.763 112.878-32.5 52.034-90.124 81.411-19.494 81.397-84.61 0-104.067zm-70.155-48.402c36.616-18.692 65.19-17.669 69.023-11.03 3.658 6.336-10.046 34.91-52.034 59.152-25.021 14.447-46.35 19.422-60.278 19.745-1.631-4.03-3.556-7.911-5.748-11.617 19.966-13.716 37.04-35.314 49.037-56.25zm-68.965 100.434c0 30.367-24.706 55.072-55.072 55.072s-55.072-24.705-55.072-55.072 24.706-55.072 55.072-55.072 55.072 24.705 55.072 55.072zm-11.366-77.574c7.764-17.077 13.589-41.699 13.497-71.423 9.939-15.331 21.693-28.362 33.054-36.481 8.565-6.121 15.007-8.104 18.637-8.104 1.142 0 2.006.196 2.57.521 2.356 1.36 5.376 8.384 4.038 22.157-3.526 36.281-32.962 84.915-61.807 102.402-11.675-9.17-11.535-5.673-9.989-9.072zm-43.706-145.353c7.316 0 25.21 26.155 25.21 74.639 0 28.889-6.353 49.846-13.036 62.071-4.489-.631-8.611-.878-12.958-.846-1.906-24.251-12.059-49.747-24.187-70.605 2.149-43.072 18.227-65.259 24.971-65.259zm-111.463 29.866c.564-.325 1.427-.521 2.569-.521 3.63 0 10.074 1.983 18.638 8.104 29.909 21.372 57.046 71.271 57.779 104.693-4.062 1.639-7.973 3.577-11.706 5.784-13.697-19.93-35.119-36.889-56.251-49.036-8.307-16.273-13.716-32.968-15.067-46.866-1.338-13.774 1.681-20.797 4.038-22.158zm-81.598 81.597c1.129-1.955 6.155-4.367 15.704-4.367 34.581 0 89.113 29.838 108.798 62.213-9.313 11.883-5.597 11.467-9.015 9.913-21.538-9.794-47.971-13.59-71.454-13.498-35.724-23.057-47.447-48.347-44.033-54.261zm-29.866 111.464c0-7.316 26.155-25.211 74.639-25.211 28.889 0 49.846 6.354 62.071 13.037-.637 4.535-.883 8.738-.845 12.958-24.195 1.903-49.686 12.019-70.601 24.192-42.467-2.105-65.264-18.146-65.264-24.976zm98.89 100.434c-16.273 8.307-32.968 13.717-46.867 15.067-13.775 1.343-20.796-1.681-22.157-4.037-3.658-6.336 10.046-34.91 52.034-59.152 25.021-14.446 46.349-19.423 60.277-19.747 5.541 13.689 7.152 10.591 4.112 12.765-15.333 10.956-32.703 29.445-47.399 55.104zm66.835 48.564c-9.94 15.331-21.693 28.362-33.054 36.481-11.26 8.047-18.852 8.94-21.207 7.582-2.356-1.36-5.376-8.384-4.038-22.157 3.526-36.28 32.961-84.914 61.806-102.403 3.415 2.683 7.036 5.112 10.832 7.268-10.413 21.828-14.42 49.053-14.339 73.229zm57.202 73.93c-7.316 0-25.21-26.155-25.21-74.64 0-28.889 6.353-49.847 13.036-62.071 4.508.633 8.63.878 12.958.845 1.896 24.154 12 49.659 24.192 70.601-2.106 42.468-18.147 65.265-24.976 65.265zm111.463-29.867c-2.356 1.359-9.949.463-21.207-7.582-30.029-21.458-57.05-71.467-57.779-104.693 13.785-5.563 10.674-7.194 12.852-4.148 10.833 15.158 29.04 32.418 55.105 47.4 8.307 16.273 13.716 32.968 15.067 46.866 1.338 13.773-1.681 20.796-4.038 22.157zm81.598-81.597c-1.361 2.356-8.384 5.38-22.157 4.037-34.957-3.396-83.943-31.617-102.344-61.883 2.659-3.392 5.069-6.987 7.208-10.755 21.808 10.407 49.102 14.435 73.261 14.34 35.723 23.057 47.446 48.347 44.032 54.261zm-44.773-86.253c-28.889 0-49.846-6.354-62.071-13.037.633-4.507.882-8.698.845-12.943 24.084-1.912 49.545-11.956 70.601-24.208 42.467 2.105 65.264 18.146 65.264 24.976 0 7.317-26.155 25.212-74.639 25.212z"/></svg>